<svg width="51" height="32" viewBox="0 0 51 32" fill="none" xmlns="http://www.w3.org/2000/svg">
<g clip-path="url(#clip0_28_13)">
<path d="M47.523 26.7119L36.3151 0L31.8897 1.9887L32.4768 3.25424C32.8832 4.0678 32.9283 4.79096 32.5671 5.69492L31.1311 9.2565C31.2756 9.65424 31.402 10.0701 31.5104 10.4768L33.5154 5.51412L39.3406 19.4802H31.8988C31.8626 19.7243 31.8265 19.9684 31.7723 20.2034H39.6567L42.3751 26.7119C43.6305 29.6949 44.2627 30.8701 42.7725 31.3672V32H51.0001V31.3672C49.9615 30.8701 48.7783 29.6949 47.523 26.7119Z" fill="white"/>
<path d="M11.2892 0.361572H0V0.994341C1.49017 1.49152 1.80627 2.84745 1.80627 6.10168V26.2599C1.80627 29.5141 1.49017 30.87 0 31.3672V32H12.2826C16.8525 32 20.6818 30.5898 23.4725 28.113C24.0505 27.6068 24.5833 27.0463 25.071 26.4497C26.4889 24.7051 27.5095 22.5989 28.0694 20.2034C28.1326 19.9684 28.1778 19.7243 28.223 19.4802C28.3223 19.0102 28.3945 18.5401 28.4487 18.052C28.539 17.2565 28.5842 16.4339 28.5842 15.5842V15.548C28.5481 8.90395 24.2943 0.361572 11.2892 0.361572ZM11.9665 31.2768H9.52807C7.04445 31.2768 6.59288 30.1017 6.59288 27.9774V1.08474H8.39915C18.4691 1.08474 23.2557 8.49716 23.2557 17.7627C23.2557 27.0282 19.2368 31.2768 11.9665 31.2768Z" fill="white"/>
</g>
<defs>
<clipPath id="clip0_28_13">
<rect width="51" height="32" fill="white"/>
</clipPath>
</defs>
</svg>
