<?xml version="1.0" standalone="no"?>
<!DOCTYPE svg PUBLIC "-//W3C//DTD SVG 20010904//EN"
 "http://www.w3.org/TR/2001/REC-SVG-20010904/DTD/svg10.dtd">
<svg version="1.0" xmlns="http://www.w3.org/2000/svg"
 width="600.000000pt" height="600.000000pt" viewBox="0 0 600.000000 600.000000"
 preserveAspectRatio="xMidYMid meet">
<metadata>
Created by potrace 1.14, written by Peter Selinger 2001-2017
</metadata>
<g transform="translate(0.000000,600.000000) scale(0.100000,-0.100000)"
fill="#000000" stroke="none">
<path d="M4155 4829 c-60 -27 -123 -56 -140 -63 -16 -8 -82 -37 -145 -66 -63
-28 -116 -53 -118 -54 -1 -2 17 -45 42 -97 88 -188 87 -204 -38 -518 l-95
-238 22 -72 22 -72 115 285 c63 157 118 286 121 286 3 0 50 -107 104 -237 127
-307 258 -619 297 -708 17 -38 31 -74 33 -80 1 -5 10 -28 20 -50 54 -125 225
-539 225 -546 0 -5 -186 -9 -434 -9 l-434 0 -6 -22 c-3 -13 -6 -32 -6 -43 0
-20 7 -20 462 -20 l463 0 117 -280 c64 -154 123 -296 132 -315 8 -19 31 -75
51 -125 21 -49 45 -108 55 -130 33 -74 90 -220 96 -245 26 -115 14 -163 -52
-202 -28 -16 -34 -26 -34 -54 l0 -34 485 0 485 0 0 38 c0 33 -4 40 -37 57 -51
28 -142 118 -196 195 -83 120 -146 250 -302 630 -12 30 -32 78 -45 105 -12 28
-41 97 -65 155 -23 58 -87 209 -140 335 -91 215 -176 417 -265 630 -21 50 -63
151 -95 225 -31 74 -72 171 -90 215 -18 44 -42 100 -53 125 -11 25 -36 86 -57
135 -20 50 -43 104 -50 120 -8 17 -84 199 -170 405 -87 206 -160 378 -164 382
-3 3 -55 -16 -116 -43z"/>
<path d="M0 4802 c0 -33 4 -41 23 -46 34 -8 105 -73 126 -115 24 -46 48 -148
56 -234 7 -79 8 -2776 0 -2854 -8 -85 -32 -188 -54 -231 -23 -44 -93 -110
-128 -118 -19 -5 -23 -13 -23 -46 l0 -39 848 4 c466 3 856 7 867 9 11 3 45 8
75 12 30 5 87 15 125 23 39 8 80 17 93 19 67 13 280 93 374 139 281 140 550
385 697 636 44 73 89 160 105 199 10 25 24 59 31 75 48 106 107 348 129 530
13 101 15 430 3 510 -33 230 -97 436 -190 615 -45 88 -152 250 -196 300 -110
123 -231 231 -341 304 -30 20 -60 40 -66 45 -27 22 -236 121 -325 155 -90 33
-292 88 -369 100 -19 3 -64 10 -100 16 -36 5 -83 12 -105 16 -22 4 -403 9
-847 11 l-808 4 0 -39z m1196 -56 c43 -4 86 -9 94 -11 8 -2 33 -6 55 -10 72
-10 247 -56 325 -86 317 -121 589 -349 767 -646 141 -233 245 -558 279 -878 4
-33 8 -73 10 -90 4 -37 4 -414 0 -475 -4 -56 -16 -152 -32 -255 -3 -16 -14
-68 -25 -115 -102 -434 -312 -711 -654 -862 -70 -31 -222 -77 -280 -84 -22 -3
-46 -7 -52 -9 -53 -17 -605 -26 -682 -11 -124 25 -186 91 -217 236 -7 34 -14
3274 -7 3296 4 12 278 12 419 0z"/>
</g>
</svg>
